<svg width="122" height="126" viewBox="0 0 122 126" fill="none" xmlns="http://www.w3.org/2000/svg">
<path d="M5.81908 73.8044L26.6725 73.0285L18.0754 80.0942L16.59 91.8458L5.81908 73.8044Z" fill="white"/>
<path d="M12.3548 75.5757C12.2489 75.6878 12.274 75.9385 12.4329 76.2904C12.5152 76.4779 12.626 76.6828 12.7653 76.905C12.8306 77.0233 12.9102 77.1503 13.004 77.2859L13.1377 77.4851C13.1917 77.5573 13.2315 77.6207 13.2856 77.6929C13.5017 77.9816 13.7464 78.2877 14.0196 78.6111C14.0878 78.6919 14.1561 78.7728 14.2387 78.8623C14.307 78.9431 14.3895 79.0327 14.472 79.1222C14.6229 79.2926 14.7966 79.4573 14.9759 79.645C15.3289 79.9974 15.6932 80.396 16.126 80.7774C16.3425 80.9681 16.5503 81.1733 16.7809 81.3727C16.892 81.4795 17.0116 81.5721 17.1226 81.679C17.2337 81.7859 17.3533 81.8784 17.4872 81.9795C19.421 83.5894 21.9281 85.3131 24.9067 86.8334C25.1005 86.9319 25.2715 87.0361 25.4739 87.1202L26.0498 87.3925C26.446 87.575 26.8194 87.7633 27.2385 87.9401C27.6433 88.1083 28.0624 88.2851 28.4673 88.4533C28.6697 88.5373 28.8864 88.6301 29.0888 88.7142C29.2998 88.7839 29.5165 88.8766 29.7275 88.9463C29.9385 89.016 30.1552 89.1088 30.3662 89.1785C30.5915 89.2568 30.7939 89.3409 31.0278 89.4049C31.464 89.553 31.9089 89.6867 32.3595 89.8434C32.4764 89.8754 32.5847 89.9218 32.7017 89.9538L33.0068 90.0612C33.2406 90.1252 33.4603 90.1805 33.6941 90.2445C33.928 90.3085 34.1619 90.3725 34.3815 90.4278C34.6153 90.4918 34.8578 90.5414 35.0774 90.5967C35.3113 90.6607 35.5909 90.7133 35.8761 90.7889C36.0301 90.8239 36.1841 90.8589 36.3524 90.9025C36.5207 90.9462 36.6976 90.9754 36.8744 91.0047C37.2424 91.0719 37.6389 91.1565 38.0583 91.2354C38.1609 91.2587 38.2636 91.282 38.3892 91.2996C38.5004 91.3086 38.6174 91.3405 38.7287 91.3495C38.9569 91.3904 39.1937 91.417 39.4362 91.4666C41.3904 91.7742 43.8327 92.0455 46.6809 92.0932C47.3972 92.098 48.1279 92.1114 48.8985 92.0903C49.278 92.1057 49.6605 92.0837 50.0573 92.0703C50.4397 92.0482 50.8451 92.0204 51.2504 91.9927C51.4531 91.9788 51.6558 91.9649 51.8584 91.951C51.9555 91.9513 52.0611 91.9372 52.1667 91.923C52.2724 91.9089 52.3694 91.9091 52.4751 91.895C52.889 91.8528 53.3029 91.8107 53.7311 91.7772C53.9338 91.7634 54.1536 91.7207 54.3649 91.6924C54.5762 91.6642 54.7875 91.6359 54.9987 91.6076C55.4299 91.5367 55.8666 91.4889 56.3064 91.4036C56.7461 91.3183 57.1915 91.256 57.6455 91.1794C57.7511 91.1653 57.8653 91.1368 57.9796 91.1082C58.0938 91.0797 58.1994 91.0656 58.3137 91.0371C58.5421 90.98 58.762 90.9374 59.0047 90.889C59.2332 90.832 59.4673 90.798 59.6958 90.741C59.9242 90.684 60.1527 90.6269 60.3812 90.5699C60.6096 90.5129 60.8381 90.4558 61.0752 90.3844C61.1894 90.3559 61.3036 90.3274 61.4265 90.2845L61.6092 90.2388L61.7778 90.1845C62.2433 90.0561 62.7174 89.9132 63.1916 89.7704C63.3144 89.7275 63.4286 89.699 63.5514 89.6561C63.6743 89.6132 63.7885 89.5847 63.9113 89.5418C64.1484 89.4704 64.3798 89.3759 64.6255 89.2901C64.8711 89.2043 65.1082 89.1329 65.3396 89.0384C65.571 88.9439 65.8167 88.8581 66.0481 88.7636C66.2795 88.6691 66.5252 88.5833 66.7652 88.4744C66.888 88.4315 67.0109 88.3886 67.1195 88.3371C67.2423 88.2942 67.3595 88.2282 67.4823 88.1853C67.9623 87.9676 68.448 87.7729 68.928 87.5552C69.168 87.4463 69.408 87.3374 69.6567 87.2142C69.8967 87.1053 70.131 86.9734 70.371 86.8645C71.334 86.3916 72.2943 85.8582 73.2576 85.2873C74.2208 84.7164 75.1642 84.1138 76.0992 83.4276C77.0256 82.7558 77.9407 82.0378 78.8246 81.242C79.0563 81.0496 79.2594 80.8398 79.4769 80.6387C79.6943 80.4375 79.8974 80.2277 80.1235 80.0122C80.3266 79.8024 80.5384 79.5782 80.7416 79.3684C80.8474 79.2563 80.9447 79.1586 81.0506 79.0465C81.1565 78.9344 81.2624 78.8223 81.354 78.7016C82.1497 77.7932 82.9113 76.8443 83.6102 75.8377C83.7793 75.5874 83.9711 75.3315 84.1401 75.0813C84.2949 74.8224 84.4725 74.5578 84.6273 74.2989C84.9739 73.784 85.2636 73.2344 85.5675 72.6936C85.7309 72.4203 85.8571 72.144 86.0063 71.862C86.1468 71.5944 86.2817 71.3037 86.4308 71.0218C86.5571 70.7455 86.6919 70.4548 86.8126 70.1555L87.0106 69.7267L87.0565 69.6174L87.1025 69.508L87.1944 69.2892C87.315 68.9899 87.427 68.705 87.5476 68.4056L87.6395 68.1869C87.6683 68.1063 87.6884 68.0401 87.7172 67.9595L87.8724 67.5046C87.9702 67.211 88.0766 66.903 88.1744 66.6094C88.2579 66.307 88.35 65.9903 88.4336 65.688L88.566 65.2389C88.6006 65.0834 88.6353 64.9279 88.6699 64.7724C88.7392 64.4614 88.8085 64.1504 88.8778 63.8394C88.9124 63.6839 88.9471 63.5284 88.9675 63.3642L89.0571 62.8891L89.1468 62.4139L89.1873 62.1835C89.1932 62.1086 89.2077 62.0193 89.2136 61.9444C89.2544 61.6161 89.3009 61.3108 89.3417 60.9824C89.3621 60.8183 89.3967 60.6628 89.3942 60.5043L89.4326 60.0175C89.4505 59.6948 89.4827 59.3808 89.5093 59.0438C89.5272 58.7211 89.5451 58.3985 89.5488 58.0672C89.5693 56.7649 89.5012 55.448 89.3219 54.1222C89.1341 52.8107 88.8349 51.4904 88.3615 50.2012C87.8882 48.9121 87.2692 47.6715 86.4558 46.5285C86.4018 46.4563 86.3477 46.3841 86.3079 46.3206L86.1458 46.1041C86.0377 45.9598 85.9353 45.8385 85.8272 45.6942C85.6024 45.4199 85.3406 45.1426 85.0558 44.871C84.7711 44.5994 84.4265 44.3306 84.0332 44.1106C83.6485 43.8762 83.2009 43.682 82.7017 43.5741C82.2396 43.4692 81.7346 43.4362 81.215 43.4925C80.7097 43.5575 80.2269 43.7147 79.7983 43.9441C79.3696 44.1735 79.0121 44.4463 78.6974 44.7451C78.3827 45.0439 78.1194 45.3544 77.8845 45.6823C77.4234 46.3236 77.102 46.9912 76.832 47.6705C76.5849 48.3441 76.3891 49.0293 76.2731 49.7435C76.2441 49.9221 76.2151 50.1007 76.1861 50.2792L76.1687 50.406L76.1598 50.5183L76.1335 50.7574L76.0952 51.2442L76.0655 51.7166C76.0537 51.8664 76.0475 52.0393 76.0357 52.1891L76.0202 52.6702C76.0023 52.9929 76.0072 53.3098 76.0121 53.6268C76.0231 54.9089 76.1083 56.1971 76.2992 57.4711C76.49 58.7451 76.7722 59.9963 77.1773 61.2045C78.726 66.0922 82.2772 70.2965 86.8388 72.1926C89.1082 73.1435 91.5648 73.4236 93.8686 73.1789C95.0276 73.0609 96.1385 72.7958 97.1953 72.4585C98.2522 72.1213 99.2722 71.6831 100.207 71.1928C102.113 70.2152 103.8 68.9864 105.276 67.6879C106.76 66.375 108.065 64.9724 109.179 63.5317C109.319 63.3621 109.454 63.1694 109.594 62.9998C109.669 62.9078 109.72 62.8215 109.795 62.7295C109.855 62.6288 109.921 62.5512 109.981 62.4505C110.107 62.2722 110.233 62.0939 110.359 61.9156C110.485 61.7372 110.611 61.5589 110.723 61.3719C110.961 61.0066 111.19 60.6557 111.419 60.3048C111.634 59.9452 111.849 59.5856 112.064 59.226C112.892 57.8077 113.592 56.4092 114.189 55.0854C114.327 54.7573 114.474 54.4148 114.611 54.0867C114.749 53.7586 114.864 53.4362 114.993 53.1225C115.051 52.9613 115.123 52.8088 115.18 52.6476C115.238 52.4864 115.287 52.3395 115.344 52.1783C115.45 51.8703 115.557 51.5623 115.655 51.2687C116.04 50.0711 116.365 48.9742 116.588 47.9519C116.645 47.6927 116.709 47.4566 116.758 47.2119C116.807 46.9671 116.848 46.7367 116.902 46.515C116.943 46.2846 116.989 46.0773 117.021 45.8612C117.067 45.6539 117.099 45.4379 117.123 45.2363C117.16 45.0433 117.184 44.8417 117.213 44.6631C117.242 44.4846 117.27 44.306 117.277 44.1332C117.317 43.8048 117.35 43.4908 117.379 43.2143C117.408 42.9378 117.42 42.69 117.429 42.4797C117.438 42.2694 117.444 42.0965 117.442 41.9381C117.434 41.6586 117.423 41.5145 117.38 41.4884C117.343 41.4855 117.28 41.6236 117.2 41.8885C117.159 42.0209 117.116 42.1908 117.07 42.3981C117.024 42.6054 116.983 42.8358 116.903 43.1007C116.845 43.3599 116.761 43.6622 116.683 43.9876C116.64 44.1574 116.597 44.3273 116.554 44.4972C116.51 44.6671 116.459 44.8513 116.412 45.0587C116.361 45.2429 116.314 45.4503 116.254 45.6489C116.193 45.8476 116.139 46.0693 116.07 46.2823C116.001 46.4953 115.946 46.7171 115.882 46.9532C115.805 47.1806 115.741 47.4167 115.655 47.6585C115.347 48.6287 114.965 49.6908 114.517 50.8307C114.405 51.1156 114.279 51.3919 114.158 51.6912C114.095 51.8294 114.037 51.9906 113.974 52.1287C113.903 52.2812 113.839 52.4193 113.768 52.5719C113.624 52.8769 113.504 53.1763 113.351 53.4957C113.208 53.8007 113.042 54.1114 112.89 54.4309C112.253 55.6912 111.507 57.0031 110.656 58.3292C110.436 58.6657 110.224 58.9879 109.995 59.3388C109.76 59.6666 109.516 60.0089 109.281 60.3367C108.789 60.9981 108.279 61.6883 107.721 62.3294C106.625 63.6433 105.351 64.9279 103.924 66.0796C102.503 67.2543 100.919 68.3105 99.1816 69.1358C97.4442 69.9612 95.5534 70.5556 93.5923 70.7147C92.616 70.7871 91.6258 70.7528 90.653 70.5919C90.4019 70.5566 90.168 70.4927 89.9256 70.4431C89.8 70.4254 89.6831 70.3934 89.5662 70.3615C89.4492 70.3295 89.3323 70.2974 89.2011 70.2568C88.953 70.1841 88.7277 70.1057 88.4882 70.0187C88.2573 69.9172 88.0178 69.8302 87.7869 69.7287C85.9481 68.9028 84.2676 67.5846 82.9332 65.9475C82.2589 65.1246 81.6647 64.2328 81.1648 63.2807C80.6649 62.3286 80.2593 61.3162 79.9395 60.258C79.3141 58.1502 79.0374 55.8819 79.0831 53.5944C79.0981 53.3092 79.0903 53.0296 79.1138 52.7301C79.1288 52.4449 79.1438 52.1597 79.1731 51.8831L79.2141 51.4568L79.2551 51.0305L79.2871 50.8145L79.2959 50.7022L79.3104 50.6129C79.3279 50.4862 79.3453 50.3594 79.377 50.2414C79.4753 49.7518 79.6193 49.2509 79.8116 48.799C79.9897 48.3385 80.2249 47.9126 80.4912 47.5647C80.7575 47.2167 81.0378 46.9755 81.2635 46.8579C81.3721 46.8063 81.4721 46.7691 81.5691 46.7694C81.6829 46.9368 81.7942 46.9457 81.9111 46.9777C82.0138 47.001 82.1364 47.0561 82.2646 47.1342C82.3928 47.2123 82.5466 47.3453 82.7004 47.4782C82.8456 47.6255 83.0106 47.8046 83.1671 47.998L83.4032 48.3185L83.5255 48.4715C83.5739 48.5206 83.5995 48.5754 83.6393 48.6389C84.8164 50.3764 85.5074 52.5046 85.7672 54.7036C85.9043 55.8075 85.9357 56.9255 85.8986 58.0606C85.8836 58.3458 85.8686 58.631 85.8622 58.9018C85.8329 59.1784 85.7951 59.4693 85.7801 59.7545L85.7391 60.1808C85.7273 60.3306 85.7012 60.4717 85.6838 60.5984C85.6317 60.8806 85.6025 61.1572 85.5504 61.4394C85.5445 61.5143 85.5243 61.5805 85.5184 61.6554L85.4437 61.8454L85.3514 62.2601L85.259 62.6747C85.2329 62.8158 85.2069 62.9569 85.1666 63.0893C85.1003 63.3629 85.0339 63.6364 84.9676 63.91C84.9273 64.0424 84.9013 64.1835 84.861 64.316L84.7401 64.7133C84.6595 64.9781 84.5789 65.243 84.4897 65.5222C84.4092 65.7871 84.3057 66.0577 84.2109 66.3139L84.0986 66.6968C84.0785 66.763 84.0583 66.8292 84.0239 66.8867L83.9492 67.0767C83.8458 67.3473 83.751 67.6035 83.6419 67.851L83.5672 68.0409L83.5299 68.1359L83.4925 68.2309L83.3203 68.6166C83.2112 68.8641 83.0793 69.1173 82.9702 69.3648C82.8469 69.6036 82.715 69.8568 82.5916 70.0956C82.4683 70.3344 82.3364 70.5877 82.1988 70.8178C81.9151 71.2925 81.6542 71.7614 81.3505 72.2044C81.1987 72.4258 81.0611 72.656 80.9093 72.8774C80.7575 73.0989 80.5914 73.3117 80.4396 73.5331C79.818 74.4103 79.1196 75.221 78.4241 75.9943C78.3411 76.1007 78.2524 76.184 78.1551 76.2817C78.0578 76.3794 77.9691 76.4627 77.8861 76.5691C77.7001 76.7502 77.5284 76.9399 77.3424 77.1209C77.1565 77.3019 76.9562 77.4743 76.7703 77.6553C76.5843 77.8364 76.3983 78.0174 76.1925 78.1667C75.4002 78.8418 74.5966 79.4707 73.7675 80.0448C72.9298 80.6333 72.0751 81.1526 71.2062 81.6632C70.3459 82.1594 69.4657 82.6239 68.5741 83.0423C68.357 83.1454 68.1398 83.2486 67.8998 83.3574C67.6826 83.4606 67.4512 83.5551 67.2341 83.6583C66.7941 83.8415 66.3541 84.0248 65.9141 84.208C65.8055 84.2596 65.6969 84.3112 65.5827 84.3397C65.4741 84.3913 65.3599 84.4198 65.2513 84.4714C65.0285 84.5515 64.8057 84.6316 64.5971 84.7204C64.3743 84.8005 64.1515 84.8806 63.9429 84.9693C63.7287 85.035 63.5059 85.1151 63.2917 85.1809C63.0774 85.2466 62.8546 85.3267 62.6404 85.3924C62.5404 85.4296 62.4262 85.4581 62.3176 85.5097C62.2176 85.5469 62.1034 85.5754 61.9892 85.6039C61.5465 85.7267 61.1266 85.8437 60.6982 85.9751L60.5383 86.0151L60.3784 86.055C60.2641 86.0835 60.1727 86.1063 60.0585 86.1348C59.8529 86.1862 59.6244 86.2432 59.4188 86.2945C59.2132 86.3459 58.9933 86.3885 58.7877 86.4399C58.5678 86.4825 58.3708 86.5194 58.1509 86.5621C57.9453 86.6134 57.734 86.6417 57.5284 86.693C57.4228 86.7072 57.3228 86.7444 57.2172 86.7585C57.1115 86.7726 57.0116 86.8098 56.9059 86.8239C56.4976 86.8892 56.0893 86.9544 55.6811 87.0196C55.2728 87.0848 54.8731 87.1356 54.4734 87.1865C54.285 87.209 54.0737 87.2373 53.8853 87.2599C53.6968 87.2824 53.4856 87.3107 53.3058 87.3189C52.9147 87.3553 52.5322 87.3774 52.1553 87.4225C52.0583 87.4223 51.9669 87.4451 51.8699 87.4448C51.7728 87.4446 51.6815 87.4674 51.5844 87.4671C51.4046 87.4753 51.2019 87.4892 51.0221 87.4974C50.6624 87.5137 50.2799 87.5358 49.9203 87.5521C49.5693 87.5541 49.2096 87.5705 48.8586 87.5724C48.1621 87.5994 47.4858 87.5602 46.8294 87.5528C44.2154 87.4711 41.9899 87.1945 40.1983 86.9075C39.9701 86.8666 39.7562 86.8344 39.5422 86.8021C39.4395 86.7788 39.3282 86.7699 39.2255 86.7465C39.1228 86.7232 39.0201 86.6999 38.9317 86.6853C38.5352 86.6007 38.1815 86.5422 37.8363 86.4693C37.668 86.4256 37.5054 86.405 37.3514 86.37C37.1974 86.3351 37.0576 86.3088 36.9264 86.2681C36.6554 86.2011 36.3987 86.1428 36.1934 86.0962C35.9737 86.0409 35.7684 85.9942 35.5488 85.9389C35.3291 85.8836 35.1323 85.8226 34.9127 85.7673C34.6931 85.712 34.4963 85.651 34.2767 85.5957L33.963 85.5027C33.8603 85.4793 33.752 85.433 33.6493 85.4097C33.2329 85.2933 32.8251 85.1626 32.4173 85.0319C32.2206 84.9709 32.0095 84.9012 31.8128 84.8402C31.616 84.7792 31.405 84.7095 31.2168 84.6341C31.02 84.5731 30.8233 84.512 30.6351 84.4366C30.4383 84.3756 30.2502 84.3002 30.062 84.2248C29.677 84.0884 29.3007 83.9376 28.9157 83.8012C28.5394 83.6504 28.1773 83.5083 27.8009 83.3575L27.2507 83.14C27.0625 83.0646 26.8972 82.9835 26.7232 82.9168C23.8837 81.7166 21.4097 80.4252 19.3749 79.2444C19.2467 79.1662 19.1099 79.1025 18.9959 79.0331C18.8676 78.9549 18.7537 78.8855 18.6254 78.8074C18.3975 78.6685 18.1552 78.5209 17.9187 78.3964C17.4541 78.133 17.0353 77.8582 16.6221 77.6065C16.4226 77.4849 16.2232 77.3634 16.0379 77.2506C15.9382 77.1898 15.8527 77.1377 15.7672 77.0856C15.6817 77.0335 15.5963 76.9815 15.4965 76.9207C15.1546 76.7124 14.8268 76.5127 14.5333 76.3535C14.462 76.3101 14.3908 76.2667 14.311 76.2377C14.2397 76.1943 14.1827 76.1596 14.1115 76.1162C13.9833 76.038 13.8464 75.9743 13.7325 75.9048C13.4959 75.7803 13.2792 75.6876 13.1053 75.6209C12.7203 75.4845 12.4607 75.4636 12.3548 75.5757Z" fill="white"/>
<path d="M22.1533 85.2936C23.0367 85.8318 23.9515 86.3499 24.9064 86.8335C24.9634 86.8683 25.0432 86.8973 25.1002 86.932C25.2142 87.0014 25.351 87.0652 25.4736 87.1202L26.0494 87.3926C26.1578 87.4389 26.2804 87.494 26.3801 87.5548C26.6537 87.6822 26.9417 87.8184 27.2153 87.9459C27.6202 88.114 28.025 88.2822 28.4298 88.4504C28.5097 88.4794 28.5809 88.5228 28.6608 88.5518C28.7976 88.6155 28.943 88.6649 29.0656 88.72C29.2766 88.7896 29.4933 88.8824 29.7043 88.9521C29.8782 89.0188 30.0522 89.0855 30.2261 89.1523L30.3344 89.1986C30.3858 89.2103 30.4143 89.2277 30.4656 89.2393C30.6395 89.306 30.8135 89.3728 30.996 89.4251L31.535 89.5965C31.7973 89.6778 32.0739 89.7679 32.3363 89.8492C32.3734 89.8522 32.4161 89.8782 32.4532 89.8812C32.5188 89.9016 32.5987 89.9306 32.6785 89.9596L33.0064 90.0613C33.2261 90.1166 33.4371 90.1863 33.671 90.2503L33.6995 90.2676C33.9333 90.3316 34.1672 90.3956 34.3868 90.4509C34.5408 90.4859 34.6949 90.5209 34.8489 90.5558C34.9287 90.5849 35.0029 90.5908 35.0913 90.6055L35.89 90.7977C35.9927 90.821 36.0954 90.8443 36.2123 90.8763L36.3663 90.9113C36.469 90.9346 36.5945 90.9522 36.6972 90.9755C36.7628 90.9959 36.8227 90.9931 36.8883 91.0135C37.1023 91.0457 37.3219 91.101 37.5644 91.1506L38.0864 91.2528C38.1235 91.2558 38.1606 91.2588 38.2034 91.2848C38.2689 91.3052 38.3431 91.3111 38.4173 91.3171C38.5286 91.326 38.6455 91.358 38.7568 91.3669C38.985 91.4079 39.2218 91.4344 39.4643 91.484C40.5855 91.6569 41.6497 91.7951 42.754 91.8988C44.0665 92.0116 45.3963 92.0958 46.7005 92.1251C46.8346 92.1283 46.9687 92.1315 47.1115 92.1204C47.6937 92.1219 48.2901 92.1321 48.9038 92.1135L49.2919 92.1145C49.5459 92.1123 49.8086 92.0956 50.0626 92.0934C50.3851 92.0741 50.7077 92.0547 51.0302 92.0354L51.2557 92.0158C51.3528 92.0161 51.4584 92.0019 51.5555 92.0022C51.6525 92.0024 51.7581 91.9883 51.8552 91.9886C51.9522 91.9888 52.0578 91.9747 52.1635 91.9605C52.2691 91.9464 52.3661 91.9467 52.4718 91.9325L52.8572 91.873C53.1427 91.8507 53.4367 91.814 53.7222 91.7917C53.8877 91.7748 54.0533 91.758 54.2275 91.7267C54.2732 91.7153 54.3103 91.7183 54.356 91.7069C54.4388 91.6985 54.5444 91.6843 54.6272 91.6759C54.7557 91.6561 54.8841 91.6362 55.0126 91.6164C55.1183 91.6023 55.2239 91.5881 55.3381 91.5596C55.655 91.5172 55.9948 91.4691 56.3203 91.4123C56.5773 91.3727 56.8428 91.3186 57.0998 91.2789L57.6594 91.1882C57.765 91.1741 57.8707 91.1599 57.9935 91.117C58.1077 91.0885 58.2133 91.0744 58.3276 91.0459C58.419 91.023 58.5246 91.0089 58.616 90.9861C58.7531 90.9519 58.8816 90.932 59.0186 90.8978L59.7097 90.7498C59.8696 90.7098 60.0381 90.6555 60.2123 90.6243L60.3951 90.5787L61.0891 90.3932C61.2033 90.3647 61.3175 90.3362 61.4404 90.2933L61.6231 90.2476L61.7917 90.1933L62.0287 90.1219C62.4115 90.0019 62.8085 89.8905 63.2141 89.7648C63.2597 89.7534 63.3054 89.742 63.3369 89.7219C63.4054 89.7048 63.4968 89.682 63.5739 89.6505L63.6653 89.6277C63.7567 89.6049 63.8339 89.5734 63.9338 89.5362L64.108 89.5049C64.2851 89.4362 64.4679 89.3906 64.645 89.3219C64.8907 89.2361 65.1278 89.1647 65.3592 89.0702L65.4592 89.033C65.6591 88.9586 65.8677 88.8698 66.0819 88.8041L66.3819 88.6925C66.5275 88.6439 66.6676 88.5723 66.8132 88.5237L67.1675 88.3863C67.2446 88.3548 67.3218 88.3233 67.3989 88.2918C67.4446 88.2804 67.4761 88.2603 67.5303 88.2345C67.7846 88.1343 68.0332 88.0111 68.2875 87.9109C68.5189 87.8164 68.7589 87.7075 68.9761 87.6044L69.7047 87.2634C69.8447 87.1917 69.9762 87.1344 70.1162 87.0628C70.2248 87.0112 70.3105 86.9653 70.4191 86.9137C71.4135 86.4207 72.3881 85.896 73.2971 85.3509C74.2633 84.7426 75.2238 84.1112 76.1102 83.4738C77.068 82.7819 77.9775 82.0409 78.8356 81.2882C79.0272 81.1303 79.2132 80.9492 79.3991 80.7682C79.4392 80.7337 79.4564 80.705 79.4964 80.6705C79.7138 80.4694 79.9084 80.274 80.1258 80.0728L80.143 80.0441C80.2717 79.9263 80.4177 79.7797 80.5407 79.6388C80.6066 79.5612 80.6867 79.4923 80.7525 79.4146L80.8984 79.2681C80.9557 79.2048 81.0129 79.1416 81.0616 79.0927C81.093 79.0727 81.1188 79.0295 81.1502 79.0094C81.2161 78.9318 81.3048 78.8485 81.3706 78.7708C82.3238 77.664 83.0195 76.7928 83.6268 75.907C83.6784 75.8207 83.7443 75.743 83.7959 75.6567C83.9133 75.4928 84.0393 75.3145 84.1425 75.1419L84.6525 74.3537C84.8989 73.9741 85.1254 73.5626 85.349 73.1886C85.435 73.0448 85.5067 72.8923 85.5841 72.7628C85.6959 72.5759 85.802 72.3658 85.8995 72.1701C85.9339 72.1126 85.9627 72.032 86.0057 71.9601C86.2651 72.0789 86.5388 72.2063 86.7982 72.3251C87.9044 72.7832 89.0879 73.1119 90.3005 73.262C91.4674 73.4234 92.6461 73.4351 93.8279 73.3114C94.3846 73.2581 94.9528 73.153 95.5296 73.0335C96.0608 72.9253 96.6034 72.7654 97.1547 72.5911C98.1658 72.2652 99.1772 71.8414 100.166 71.3253C101.069 70.8551 101.978 70.3101 102.856 69.6871C103.653 69.1331 104.466 68.4898 105.244 67.8061C106.671 66.5564 107.976 65.1537 109.147 63.6499C109.256 63.5003 109.37 63.3739 109.479 63.2243C109.505 63.1812 109.545 63.1467 109.571 63.1035L109.614 63.0316C109.671 62.9684 109.714 62.8965 109.771 62.8332C109.832 62.7326 109.897 62.6549 109.958 62.5542C110.066 62.4047 110.184 62.2408 110.278 62.0825L110.321 62.0106C110.347 61.9675 110.373 61.9243 110.413 61.8898C110.513 61.7547 110.599 61.6108 110.699 61.4757C110.768 61.3606 110.86 61.2398 110.929 61.1248C111.089 60.8889 111.235 60.6444 111.396 60.4085L112.041 59.3298C112.809 58.0121 113.523 56.6223 114.166 55.1891C114.304 54.861 114.45 54.5186 114.588 54.1905C114.68 53.9717 114.763 53.7674 114.832 53.5543C114.878 53.445 114.924 53.3356 114.97 53.2262L115.157 52.7513L115.174 52.7225C115.223 52.5757 115.272 52.4289 115.335 52.2908L115.43 52.0346C115.507 51.8071 115.576 51.5941 115.66 51.3898C116.094 50.0454 116.394 48.9916 116.593 48.073C116.619 47.9319 116.659 47.7995 116.685 47.6583L116.763 47.333C116.798 47.1775 116.827 46.9989 116.853 46.8578C116.873 46.7916 116.879 46.7167 116.893 46.6274L117.012 45.9737C117.038 45.8325 117.064 45.6914 117.09 45.5503C117.096 45.4754 117.108 45.4236 117.113 45.3487C117.139 45.2076 117.157 45.0809 117.174 44.9541L117.203 44.7756C117.232 44.597 117.261 44.4185 117.267 44.2456C117.308 43.9172 117.34 43.6033 117.37 43.3267C117.405 43.0733 117.408 42.8399 117.409 42.644L117.42 42.5922C117.429 42.3818 117.435 42.209 117.433 42.0505C117.439 41.7797 117.414 41.6269 117.385 41.6096C117.348 41.6066 117.285 41.7447 117.205 42.0096C117.164 42.142 117.121 42.3119 117.075 42.5192C117.055 42.5854 117.049 42.6603 117.02 42.7409C116.994 42.8821 116.951 43.0519 116.908 43.2218C116.85 43.481 116.766 43.7833 116.688 44.1087C116.654 44.2642 116.611 44.4341 116.559 44.6183C116.515 44.7882 116.464 44.9725 116.417 45.1798C116.397 45.246 116.377 45.3122 116.363 45.4015C116.331 45.5196 116.291 45.652 116.273 45.7787L116.21 46.0148C116.17 46.1472 116.129 46.2797 116.089 46.4121C116.06 46.4927 116.046 46.582 116.017 46.6626C115.977 46.795 115.951 46.9362 115.902 47.083L115.674 47.7883C115.413 48.6491 115.059 49.6307 114.536 50.9605C114.424 51.2454 114.298 51.5217 114.177 51.821C114.114 51.9592 114.06 52.0829 114.011 52.2297L113.985 52.2729L113.778 52.716C113.761 52.8428 113.701 52.9435 113.655 53.0528C113.566 53.2341 113.483 53.4385 113.385 53.6341C113.242 53.9392 113.075 54.2499 112.923 54.5693C112.226 55.9304 111.481 57.2423 110.69 58.4676L110.028 59.4773C109.885 59.6843 109.742 59.8914 109.584 60.0898C109.493 60.2106 109.392 60.3457 109.315 60.4752C108.831 61.1222 108.321 61.8124 107.754 62.4679C106.601 63.845 105.322 65.1066 103.949 66.2325C103.214 66.8443 102.453 67.4012 101.699 67.8833C100.873 68.42 100.044 68.8961 99.2065 69.2887C97.3063 70.1914 95.4356 70.7196 93.6172 70.8676C92.6181 70.9457 91.6365 70.897 90.6779 70.7447C90.5153 70.7241 90.347 70.6805 90.1701 70.6512C90.1045 70.6309 90.0161 70.6162 89.9419 70.6103C89.8392 70.587 89.7366 70.5636 89.6425 70.5259C89.6282 70.5173 89.6054 70.523 89.5769 70.5056L89.4228 70.4707C89.3573 70.4503 89.2917 70.43 89.2175 70.424C89.072 70.3747 88.9266 70.3253 88.7954 70.2846C88.7013 70.2469 88.5987 70.2236 88.5046 70.1859L88.4247 70.1569C88.2223 70.0728 88.0199 69.9887 87.8032 69.896C87.5723 69.7945 87.3357 69.67 87.0992 69.5455L87.1739 69.3555L87.2486 69.1656C87.3404 68.9469 87.4267 68.7051 87.5185 68.4863L87.6104 68.2676C87.622 68.2158 87.6478 68.1726 87.6593 68.1208C87.6765 68.092 87.6709 68.0689 87.6881 68.0402L87.8434 67.5853C87.8807 67.4903 87.9124 67.3723 87.9497 67.2773C88.0102 67.0787 88.0848 66.8887 88.1453 66.6901L88.4045 65.7687L88.5455 65.3052C88.5686 65.2015 88.5917 65.0979 88.6148 64.9942C88.6263 64.9424 88.6379 64.8906 88.6494 64.8387L88.7389 64.4615C88.7907 64.2773 88.8197 64.0987 88.8715 63.9144C88.9032 63.7964 88.9207 63.6696 88.9438 63.566C88.9467 63.5285 88.9497 63.4911 88.9612 63.4393L89.0509 62.9641L89.1811 62.2585C89.1927 62.2067 89.2042 62.1548 89.2015 62.0943C89.1959 62.0713 89.2131 62.0425 89.216 62.005C89.2568 61.6767 89.3032 61.3714 89.344 61.043C89.3556 60.9912 89.3529 60.9307 89.3644 60.8789C89.3875 60.7752 89.3878 60.6772 89.3966 60.5649L89.4349 60.0781C89.444 59.8678 89.476 59.6517 89.4937 59.4271L89.5116 59.1044C89.5119 59.0064 89.5121 58.9085 89.5266 58.8192C89.5443 58.5945 89.5478 58.3611 89.5512 58.1278C89.5586 57.4651 89.5517 56.7938 89.5191 56.1656C89.4894 55.4999 89.4226 54.8313 89.3243 54.1828C89.229 53.4968 89.1023 52.8309 88.9497 52.2082C88.7859 51.5393 88.5992 50.8761 88.3639 50.2618C87.865 48.9178 87.2231 47.683 86.4582 46.5891C86.4041 46.5169 86.3501 46.4447 86.3103 46.3812L86.1482 46.1647C86.114 46.1243 86.0799 46.0839 86.06 46.0521C85.986 45.9482 85.9035 45.8587 85.8296 45.7548C85.5421 45.4227 85.3088 45.1628 85.0582 44.9316C84.745 44.6427 84.4202 44.4056 84.1068 44.2146C84.0925 44.2059 84.064 44.1886 84.0498 44.1799C83.6366 43.9282 83.1804 43.7483 82.7183 43.6434C82.2192 43.5355 81.7141 43.5025 81.2316 43.5618C80.7491 43.621 80.2521 43.7696 79.8149 44.0134C79.4262 44.2083 79.0459 44.4868 78.6998 44.8057C78.4165 45.0845 78.1389 45.3863 77.8869 45.7429C77.4744 46.3354 77.1246 46.9856 76.8344 47.7311C76.5787 48.419 76.3914 49.0899 76.2755 49.8041C76.2435 50.0201 76.2231 50.1843 76.1885 50.3398L76.171 50.4666L76.1359 50.818L76.0833 51.2961L76.0536 51.7686C76.0563 51.8291 76.0447 51.8809 76.0474 51.9414C76.0472 52.0394 76.0383 52.1517 76.0295 52.2641L76.014 52.7452C75.9963 52.9699 76.0015 53.1889 76.0066 53.4079C76.0064 53.5058 76.0061 53.6038 76.0059 53.7017C76.0083 54.9983 76.1077 56.2951 76.2929 57.5461C76.4894 58.8431 76.7859 60.103 77.1711 61.2795C77.4145 62.0754 77.7265 62.8541 78.0927 63.6071C77.7407 62.8628 77.4373 62.0697 77.1711 61.2795C76.7859 60.103 76.4894 58.8431 76.2929 57.5461C76.1077 56.2951 76.0083 54.9983 76.0059 53.7017C76.0061 53.6038 76.0064 53.5058 76.0066 53.4079C76.0015 53.1889 76.0049 52.9555 76.014 52.7452L76.0295 52.2641C76.0297 52.1661 76.0386 52.0538 76.0474 51.9414C76.0447 51.8809 76.0563 51.8291 76.0536 51.7686L76.0833 51.2961L76.171 50.4666L76.1885 50.3398C76.2003 50.19 76.2293 50.0115 76.2755 49.8041C76.4057 49.0986 76.5787 48.419 76.8344 47.7311C77.1246 46.9856 77.4459 46.318 77.8726 45.7342C78.1247 45.3776 78.388 45.0671 78.6855 44.797C79.0317 44.4781 79.4034 44.214 79.7864 43.996C80.2379 43.7609 80.7206 43.6037 81.2031 43.5444C81.6856 43.4852 82.1764 43.5095 82.6898 43.6261C83.1519 43.731 83.6081 43.9108 84.0213 44.1625C84.3632 44.3709 84.7165 44.6253 85.0582 44.9316C85.3088 45.1628 85.5564 45.4314 85.8296 45.7548C85.9035 45.8587 85.986 45.9482 86.06 46.0521C86.0799 46.0839 86.114 46.1243 86.1482 46.1647L86.3103 46.3812C86.3643 46.4534 86.4041 46.5169 86.4439 46.5804C87.2317 47.6687 87.8793 48.9265 88.3639 50.2618C88.5992 50.8761 88.7859 51.5393 88.9497 52.2082C89.1023 52.8309 89.229 53.4968 89.3243 54.1828C89.4083 54.8226 89.4751 55.4912 89.5191 56.1656C89.5517 56.7938 89.5586 57.4651 89.5512 58.1278C89.5478 58.3611 89.5301 58.5858 89.5266 58.8192C89.5121 58.9085 89.5119 59.0064 89.5116 59.1044L89.4937 59.4271C89.4846 59.6374 89.4384 59.8447 89.4293 60.055L89.391 60.5418C89.3821 60.6542 89.3676 60.7435 89.3588 60.8558C89.3472 60.9076 89.3499 60.9682 89.3384 61.02C89.3062 61.334 89.2511 61.6536 89.2104 61.982C89.216 62.005 89.1988 62.0338 89.1959 62.0712C89.1843 62.1231 89.187 62.1836 89.1755 62.2354L89.1349 62.4658L89.0453 62.941L88.9612 63.4393C88.9497 63.4911 88.9467 63.5285 88.9438 63.566C88.9121 63.684 88.9032 63.7964 88.8715 63.9144C88.8197 64.0987 88.7907 64.2773 88.7389 64.4615L88.6494 64.8387C88.6379 64.8906 88.6263 64.9424 88.6148 64.9942C88.5917 65.0979 88.5686 65.2015 88.5455 65.3052L88.4131 65.7543L88.1539 66.6757C88.0934 66.8743 88.0244 67.0873 87.9497 67.2773C87.9124 67.3723 87.8807 67.4903 87.8434 67.5853L87.6881 68.0402C87.6709 68.0689 87.6765 68.092 87.6593 68.1208C87.6478 68.1726 87.6306 68.2014 87.619 68.2532L87.5272 68.4719C87.4353 68.6907 87.3404 68.9469 87.2486 69.1656L87.1739 69.3555L87.0992 69.5455C85.9591 68.949 84.8824 68.1165 83.9202 67.1574L83.9489 67.0768L84.0236 66.8868C84.0494 66.8437 84.0523 66.8062 84.0639 66.7544C84.0725 66.74 84.0754 66.7026 84.084 66.6882L84.2192 66.2996C84.2565 66.2046 84.2938 66.1096 84.3169 66.0059C84.3744 65.8447 84.4405 65.6692 84.498 65.508L84.501 65.4705C84.5815 65.2056 84.6535 64.9552 84.7255 64.7047L84.8464 64.3074C84.8751 64.2268 84.8896 64.1375 84.9041 64.0482C84.9157 63.9964 84.9272 63.9445 84.9388 63.8927L84.9936 63.671C85.0397 63.4637 85.1002 63.265 85.1378 63.0721C85.1609 62.9684 85.184 62.8647 85.2071 62.7611C85.21 62.7236 85.2272 62.6949 85.2302 62.6574L85.3225 62.2428L85.4469 61.6121C85.4584 61.5603 85.4613 61.5228 85.4729 61.471C85.4672 61.4479 85.4844 61.4192 85.4788 61.3961L85.6122 60.5551C85.6238 60.5033 85.6353 60.4514 85.6383 60.414C85.6527 60.3247 85.6672 60.2354 85.6817 60.1462L85.7228 59.7198C85.752 59.4433 85.7899 59.1524 85.8049 58.8672C85.8051 58.7693 85.8196 58.68 85.8285 58.5676C85.8346 58.3948 85.8493 58.2075 85.8641 58.0203C85.8956 56.8621 85.8727 55.7297 85.7327 54.6633C85.5987 53.522 85.3616 52.4553 85.0217 51.4633C84.6561 50.4165 84.1877 49.4443 83.619 48.6072C83.5935 48.5524 83.5451 48.5033 83.5053 48.4398L83.383 48.2868L83.1469 47.9664C82.9705 47.7412 82.8197 47.5708 82.6801 47.4466C82.5207 47.2906 82.3726 47.1807 82.2444 47.1026C82.2301 47.0939 82.2159 47.0852 82.2159 47.0852C82.1161 47.0244 82.0078 46.9781 81.8908 46.9461C81.7739 46.9141 81.6626 46.9051 81.557 46.9193C81.4514 46.9334 81.36 46.9562 81.2514 47.0078C81.0114 47.1166 80.7225 47.3724 80.479 47.7146C80.2213 48.0481 79.9862 48.474 79.7995 48.9489C79.6128 49.4238 79.4546 49.9161 79.3649 50.3913C79.3418 50.4949 79.3157 50.636 79.2983 50.7628L79.2838 50.852L79.2516 51.166L79.2305 51.6241L79.1894 52.0504C79.1688 52.3125 79.1395 52.5891 79.1417 52.8455L79.1444 52.906C79.1297 53.0932 79.1292 53.2892 79.1287 53.4851C79.1285 53.583 79.1282 53.681 79.1223 53.7559C79.0994 54.8997 79.1507 56.0495 79.2964 57.1389C79.4391 58.2659 79.6732 59.37 79.9873 60.4051C80.3042 61.5008 80.724 62.5219 81.2126 63.4279C81.7125 64.38 82.3067 65.2718 82.981 66.0947C83.2883 66.4585 83.6185 66.8166 83.943 67.1517L83.6416 67.8511L83.5295 68.136L83.3057 68.608L82.9556 69.3562C82.8839 69.5087 82.8065 69.6381 82.7348 69.7907C82.6746 69.8914 82.6372 69.9863 82.5771 70.087C82.5341 70.1589 82.5053 70.2396 82.4623 70.3115C82.382 70.4784 82.2788 70.651 82.1842 70.8092C82.0982 70.953 82.0209 71.0825 81.9435 71.212C81.7457 71.5428 81.5622 71.8823 81.3359 72.1958L80.8947 72.8688C80.7945 73.004 80.6942 73.1392 80.594 73.2743C80.5281 73.3519 80.4766 73.4382 80.4107 73.5159C79.7319 74.4563 78.9763 75.3302 78.3953 75.977C78.3294 76.0546 78.2722 76.1179 78.2007 76.1724C78.1692 76.1925 78.152 76.2213 78.112 76.2558C78.0233 76.3391 77.9489 76.4311 77.8602 76.5144L77.843 76.5432C77.7772 76.6208 77.7057 76.6753 77.6398 76.753C77.5254 76.8795 77.4052 76.9829 77.2907 77.1094C77.1048 77.2904 76.9045 77.4628 76.7186 77.6438C76.6785 77.6783 76.6471 77.6983 76.6213 77.7415C76.4754 77.8881 76.3152 78.0259 76.155 78.1638C75.3942 78.8188 74.5678 79.4534 73.7301 80.0419C72.9238 80.6103 72.0605 81.144 71.1688 81.6603C70.3399 82.1364 69.4597 82.6009 68.5367 83.0394L67.8624 83.3546C67.6452 83.4577 67.4366 83.5465 67.2195 83.6497L67.1966 83.6554C66.8795 83.7957 66.5709 83.9217 66.2624 84.0477L65.8767 84.2051C65.831 84.2165 65.7995 84.2366 65.7681 84.2567C65.691 84.2882 65.6367 84.314 65.5595 84.3455L65.4367 84.3884C65.3682 84.4055 65.291 84.437 65.2367 84.4628L64.5825 84.7118C64.4511 84.7691 64.3054 84.8177 64.174 84.875L63.9283 84.9607C63.7598 85.015 63.5913 85.0694 63.4228 85.1237L63.2542 85.178C63.04 85.2437 62.8172 85.3238 62.603 85.3895C62.5116 85.4123 62.4344 85.4438 62.3431 85.4666L62.2745 85.4837C62.206 85.5009 62.1374 85.518 62.0603 85.5495C62.0146 85.5609 61.9832 85.5809 61.9461 85.578C61.5034 85.7007 61.075 85.8321 60.6551 85.9492L60.4952 85.9891L60.3353 86.029C60.221 86.0576 60.1297 86.0804 60.0154 86.1089C59.8555 86.1488 59.6956 86.1887 59.5214 86.22L59.1558 86.3112C59.0188 86.3455 58.8817 86.3797 58.7304 86.4052L58.4648 86.4593C58.3363 86.4791 58.2221 86.5076 58.0936 86.5275C57.888 86.5788 57.6767 86.6071 57.4711 86.6584L57.1598 86.7239C57.0456 86.7524 56.94 86.7665 56.8572 86.7749C56.6231 86.8089 56.3804 86.8573 56.1462 86.8912L55.6323 86.9706C55.3297 87.0217 55.0356 87.0584 54.7415 87.0951C54.6359 87.1092 54.5303 87.1233 54.4247 87.1374C54.2819 87.1486 54.1534 87.1684 54.0021 87.194L53.8365 87.2108C53.7908 87.2223 53.7538 87.2193 53.7081 87.2307C53.5567 87.2562 53.3998 87.2587 53.2484 87.2842L53.1428 87.2984C52.7888 87.3378 52.4434 87.3628 52.098 87.3879C52.0381 87.3906 51.9924 87.402 51.9324 87.4047L51.8125 87.4102C51.7069 87.4243 51.6241 87.4327 51.5271 87.4325C51.3473 87.4407 51.1446 87.4546 50.9648 87.4627L50.9048 87.4654C50.5452 87.4818 50.1998 87.5069 49.863 87.5175L49.4748 87.5165C49.2437 87.513 49.0268 87.5182 48.7956 87.5147C48.2419 87.5306 47.7053 87.5177 47.1917 87.4991C47.0575 87.4958 46.9092 87.4839 46.7664 87.4951C44.5548 87.4231 42.3834 87.2187 40.1353 86.8498L39.4792 86.7444C39.3765 86.7211 39.2652 86.7122 39.1768 86.6975C39.1026 86.6916 39.0513 86.6799 38.9857 86.6596C38.9486 86.6566 38.9201 86.6393 38.883 86.6363C38.4865 86.5517 38.1327 86.4931 37.7876 86.4202C37.722 86.3999 37.662 86.4026 37.6107 86.391C37.508 86.3677 37.4053 86.3443 37.3169 86.3297C37.2142 86.3064 37.1258 86.2918 37.0459 86.2627L36.8919 86.2278L36.6495 86.1781C36.4669 86.1258 36.3043 86.1052 36.1589 86.0559C36.0704 86.0412 36.0048 86.0209 35.9164 86.0063C35.7766 85.98 35.6455 85.9393 35.5057 85.913C35.403 85.8897 35.3003 85.8664 35.192 85.82C35.0893 85.7967 34.9723 85.7647 34.8697 85.7414C34.6643 85.6947 34.4533 85.625 34.2479 85.5784L33.9342 85.4854C33.8686 85.465 33.803 85.4447 33.7374 85.4244C33.7003 85.4214 33.6576 85.3954 33.6205 85.3924L33.4522 85.3487C33.1014 85.2527 32.745 85.1337 32.3942 85.0377C32.2401 85.0027 32.0805 84.9447 31.935 84.8953C31.8837 84.8837 31.8409 84.8576 31.7896 84.846C31.5928 84.785 31.3818 84.7153 31.185 84.6543C31.0681 84.6223 30.9598 84.5759 30.8428 84.5439L30.5805 84.4625C30.4493 84.4218 30.3409 84.3755 30.2098 84.3348C30.1442 84.3145 30.0643 84.2854 29.9988 84.2651L29.4684 84.0793C29.2574 84.0096 29.0549 83.9256 28.8439 83.8559C28.6272 83.7631 28.402 83.6847 28.1996 83.6007C28.0399 83.5426 27.8888 83.4702 27.7291 83.4121L27.1789 83.1946C27.0705 83.1483 26.9479 83.0932 26.8396 83.0468C26.7826 83.0121 26.717 82.9917 26.6372 82.9627C25.3229 82.3975 23.9831 81.7775 22.6691 81.1143C21.5346 80.5408 20.4031 79.93 19.2889 79.2903C19.2461 79.2643 19.1891 79.2296 19.1464 79.2035C19.0751 79.1601 19.0039 79.1167 18.9327 79.0733C18.8187 79.0039 18.6762 78.9171 18.5622 78.8476C18.3485 78.7174 18.149 78.5959 17.9267 78.4801L17.8555 78.4367C17.5619 78.2774 17.2998 78.0981 17.0433 77.9419C16.8723 77.8377 16.7299 77.7509 16.5731 77.6554C16.3737 77.5339 16.1742 77.4123 15.989 77.2995C15.9035 77.2474 15.818 77.1953 15.7325 77.1432L15.704 77.1259C15.6185 77.0738 15.533 77.0217 15.4333 76.961C15.0913 76.7526 14.7636 76.553 14.4701 76.3938L14.2477 76.2779L14.0483 76.1564C13.92 76.0783 13.7832 76.0145 13.6692 75.9451C13.4327 75.8206 13.216 75.7278 13.0421 75.6611C12.68 75.519 12.4345 75.5068 12.3201 75.6333C12.2142 75.7454 12.2392 75.9962 12.3982 76.3481C12.4804 76.5356 12.5912 76.7404 12.7305 76.9626C12.7959 77.0809 12.8755 77.2079 12.9693 77.3436L13.1029 77.5427C13.1427 77.6062 13.2054 77.664 13.2452 77.7275L13.2594 77.7362C13.4756 78.0248 13.7289 78.3165 13.9934 78.6543L14.0475 78.7265C14.1101 78.7843 14.1499 78.8477 14.2039 78.9199C14.2722 79.0008 14.3548 79.0903 14.4373 79.1798C14.6024 79.3589 14.7761 79.5236 14.9411 79.7026C15.0038 79.7604 15.0721 79.8413 15.1347 79.8991C15.4393 80.2024 15.7354 80.5201 16.0771 80.8264C16.2935 81.0171 16.5013 81.2222 16.732 81.4216L16.8516 81.5141C16.9285 81.5806 17.0054 81.6471 17.0823 81.7135C17.1591 81.78 17.236 81.8464 17.3129 81.9129C17.3557 81.9389 17.3898 81.9794 17.4326 82.0054C18.4407 82.8551 19.5631 83.6763 20.7398 84.4717C21.2272 84.7294 21.6831 85.0071 22.1533 85.2936ZM86.0057 71.9601C85.9627 72.032 85.9339 72.1126 85.8995 72.1701C85.802 72.3658 85.7045 72.5615 85.5841 72.7628C85.4981 72.9067 85.4121 73.0505 85.349 73.1886C85.1311 73.5857 84.9132 73.9827 84.6525 74.3537L84.1654 75.1362C84.0479 75.3001 83.9219 75.4784 83.8187 75.651C83.7671 75.7373 83.7013 75.815 83.6497 75.9013C83.0424 76.7871 82.3467 77.6583 81.3935 78.7651C81.319 78.8571 81.2532 78.9348 81.1731 79.0037C81.1416 79.0238 81.1158 79.067 81.0844 79.087C81.0272 79.1503 80.9785 79.1991 80.9213 79.2624L80.7754 79.4089C80.7095 79.4866 80.6294 79.5555 80.5636 79.6331C80.4405 79.774 80.2803 79.9119 80.143 80.0441L80.1258 80.0728C79.9084 80.274 79.7281 80.478 79.5107 80.6792C79.4706 80.7136 79.4392 80.7337 79.3991 80.7682C79.2218 80.9348 79.05 81.1246 78.8584 81.2826C77.9917 82.0496 77.0823 82.7906 76.133 83.4681C75.2381 84.1198 74.2861 84.7369 73.2914 85.3278C72.3824 85.8729 71.4221 86.4063 70.4191 86.9137C70.3105 86.9653 70.2248 87.0112 70.1162 87.0628C69.9762 87.1344 69.8361 87.2061 69.7047 87.2634L68.9618 87.5957C68.7304 87.6902 68.5046 87.8077 68.2875 87.9109C68.0332 88.0111 67.7846 88.1343 67.5303 88.2345C67.4761 88.2603 67.4446 88.2804 67.3989 88.2918C67.3218 88.3233 67.2304 88.3461 67.1532 88.3776L66.8132 88.5237C66.6676 88.5723 66.5361 88.6295 66.3819 88.6925L66.0677 88.7954C65.8591 88.8842 65.6734 88.9673 65.4592 89.033L65.3592 89.0702C65.1135 89.156 64.8764 89.2274 64.645 89.3219C64.4679 89.3906 64.2851 89.4362 64.108 89.5049L63.9166 89.5649C63.8253 89.5878 63.7481 89.6193 63.6481 89.6564L63.5567 89.6793C63.4796 89.7108 63.4111 89.7279 63.3197 89.7507C63.274 89.7621 63.2283 89.7735 63.1968 89.7936C62.7999 89.9049 62.4257 90.0106 62.0287 90.1219L61.7917 90.1933L61.6145 90.262L61.4404 90.2933C61.3261 90.3218 61.2033 90.3647 61.0891 90.3932L60.3951 90.5787L60.2123 90.6243C60.0524 90.6642 59.8696 90.7098 59.7097 90.7498L59.0186 90.8978C58.8816 90.932 58.7531 90.9519 58.616 90.9861C58.5246 91.0089 58.419 91.023 58.3276 91.0459C58.2133 91.0744 58.1077 91.0885 57.9935 91.117C57.865 91.1369 57.7508 91.1654 57.6594 91.1882L57.0998 91.2789C56.8428 91.3186 56.5773 91.3727 56.3203 91.4123C55.9948 91.4691 55.655 91.5172 55.3381 91.5596C55.2325 91.5738 55.1269 91.5879 55.0212 91.602C54.8928 91.6218 54.7729 91.6273 54.6444 91.6471C54.5616 91.6556 54.456 91.6697 54.3732 91.6781C54.3275 91.6895 54.2904 91.6866 54.2447 91.698C54.0791 91.7148 53.9049 91.7461 53.7394 91.7629C53.4539 91.7852 53.1599 91.8219 52.8744 91.8443L52.4833 91.8807C52.3777 91.8948 52.2806 91.8946 52.175 91.9087C52.0694 91.9228 51.9637 91.937 51.8667 91.9367C51.7697 91.9365 51.664 91.9506 51.5584 91.9648C51.4614 91.9645 51.3557 91.9786 51.2587 91.9784L51.0332 91.998C50.7106 92.0173 50.3881 92.0366 50.0655 92.056C49.8115 92.0582 49.5489 92.0748 49.2949 92.077L48.8981 92.0904C48.2845 92.109 47.688 92.0988 47.1058 92.0973C46.9717 92.0941 46.8375 92.0908 46.7034 92.0876C45.3906 92.0727 44.0608 91.9886 42.7569 91.8613C41.6669 91.7663 40.5885 91.6195 39.4673 91.4466C39.2162 91.4113 38.988 91.3704 38.7598 91.3295C38.6485 91.3206 38.5316 91.2886 38.4203 91.2796C38.3461 91.2737 38.2805 91.2534 38.2063 91.2474C38.1692 91.2444 38.1321 91.2414 38.0894 91.2154L37.5673 91.1132C37.3249 91.0636 37.1109 91.0313 36.8913 90.976C36.8257 90.9557 36.7658 90.9584 36.7002 90.9381C36.5746 90.9205 36.472 90.8971 36.3693 90.8738L36.2152 90.8389C36.0983 90.8069 35.9956 90.7835 35.8929 90.7602L35.0943 90.568C35.0145 90.539 34.926 90.5244 34.8518 90.5184C34.6978 90.4834 34.5438 90.4485 34.3984 90.3991C34.1645 90.3351 33.9306 90.2711 33.711 90.2158L33.6825 90.1985C33.4629 90.1431 33.2519 90.0734 33.018 90.0094L32.6672 89.9134C32.6016 89.8931 32.5218 89.8641 32.4419 89.8351C32.4134 89.8177 32.3621 89.8061 32.325 89.8031C32.0626 89.7217 31.786 89.6317 31.5237 89.5503L30.9847 89.379C30.8022 89.3266 30.6282 89.2599 30.4543 89.1932C30.4116 89.1672 30.3745 89.1642 30.3231 89.1525L30.2148 89.1061C30.0409 89.0394 29.8669 88.9727 29.6844 88.9204C29.4734 88.8507 29.2567 88.7579 29.0457 88.6882C28.9003 88.6389 28.7635 88.5751 28.6409 88.5201C28.5753 88.4997 28.504 88.4563 28.4242 88.4273C28.0193 88.2592 27.6003 88.0823 27.1954 87.9141C26.9075 87.778 26.6338 87.6505 26.3602 87.523C26.2518 87.4766 26.1293 87.4216 26.0295 87.3608L25.4537 87.0885C25.3282 87.0709 25.1999 86.9928 25.0774 86.9377C25.0204 86.903 24.9491 86.8596 24.8835 86.8392C23.4555 86.1066 22.0848 85.3107 20.7799 84.4372C19.5946 83.6562 18.4808 82.8206 17.464 81.9853C17.4213 81.9593 17.3871 81.9189 17.3444 81.8928C17.2675 81.8264 17.1906 81.7599 17.1137 81.6934C17.0368 81.627 16.9599 81.5605 16.883 81.494L16.7634 81.4015C16.547 81.2108 16.3392 81.0057 16.1085 80.8063C15.7668 80.5 15.4479 80.188 15.1662 79.879C15.0893 79.8125 15.0352 79.7403 14.9726 79.6826C14.8075 79.5035 14.6338 79.3388 14.4688 79.1597C14.3862 79.0702 14.3037 78.9807 14.2354 78.8998C14.1813 78.8277 14.133 78.7786 14.0789 78.7064L14.0249 78.6342C13.7517 78.3108 13.4928 77.9961 13.2909 77.7161L13.2852 77.693C13.2312 77.6208 13.1828 77.5717 13.143 77.5083L13.0094 77.3091C12.9155 77.1734 12.8359 77.0465 12.7706 76.9282C12.6256 76.6829 12.5148 76.478 12.4382 76.3136C12.2793 75.9617 12.2542 75.7109 12.3601 75.5989C12.466 75.4868 12.7114 75.4989 13.0821 75.6266C13.256 75.6934 13.4727 75.7861 13.7093 75.9106C13.8319 75.9657 13.9458 76.0351 14.0883 76.1219L14.2878 76.2435L14.4959 76.3506C14.7238 76.4895 14.9889 76.6314 15.2596 76.7963C15.3308 76.8397 15.4021 76.8831 15.4733 76.9265C15.5588 76.9786 15.6443 77.0307 15.744 77.0914L15.7725 77.1088C15.858 77.1609 15.9435 77.213 16.029 77.2651C16.2142 77.3779 16.4137 77.4994 16.6132 77.621C16.7699 77.7164 16.9266 77.8119 17.0833 77.9074C17.3398 78.0637 17.6105 78.2286 17.8955 78.4022L17.9667 78.4456C18.1804 78.5758 18.3799 78.6973 18.6022 78.8131C18.7162 78.8826 18.8445 78.9607 18.9585 79.0302C19.0297 79.0736 19.1152 79.1256 19.1864 79.1691C19.2292 79.1951 19.2862 79.2298 19.3289 79.2559C20.4432 79.8955 21.5747 80.5064 22.7091 81.0798C24.0231 81.743 25.3629 82.363 26.6772 82.9283C26.7428 82.9486 26.7998 82.9833 26.8796 83.0123C26.988 83.0587 27.1106 83.1138 27.2189 83.1602L27.7692 83.3777C27.9288 83.4357 28.0799 83.5081 28.2396 83.5662C28.442 83.6503 28.6673 83.7286 28.884 83.8214C29.095 83.8911 29.2974 83.9752 29.5084 84.0449L30.0388 84.2306C30.1044 84.251 30.1842 84.28 30.2498 84.3003C30.3724 84.3554 30.4893 84.3874 30.6205 84.4281L30.8829 84.5094C30.9998 84.5414 31.1081 84.5878 31.2251 84.6198C31.4218 84.6808 31.6329 84.7505 31.8211 84.8259C31.8724 84.8375 31.9151 84.8636 31.9665 84.8753C32.1119 84.9246 32.2716 84.9826 32.4256 85.0176C32.7764 85.1136 33.1329 85.2327 33.4837 85.3286L33.6519 85.3723C33.689 85.3753 33.7318 85.4013 33.7689 85.4043C33.8345 85.4246 33.9 85.445 33.9656 85.4653L34.2879 85.5439C34.4933 85.5906 34.6901 85.6516 34.8954 85.6982C34.9981 85.7215 35.1293 85.7622 35.232 85.7855C35.3347 85.8088 35.4288 85.8465 35.5457 85.8785C35.6769 85.9192 35.8167 85.9455 35.9565 85.9718C36.0363 86.0008 36.1105 86.0068 36.1903 86.0358C36.3444 86.0707 36.5126 86.1144 36.6895 86.1437L36.9234 86.2077L37.0774 86.2426C37.1658 86.2573 37.2599 86.295 37.3483 86.3096C37.451 86.3329 37.5395 86.3476 37.6422 86.3709C37.6935 86.3825 37.7591 86.4029 37.819 86.4001C38.1499 86.4644 38.5093 86.546 38.9144 86.6162C38.9515 86.6192 38.98 86.6365 39.0171 86.6395C39.0827 86.6599 39.1426 86.6571 39.2082 86.6775C39.3109 86.7008 39.408 86.701 39.5107 86.7243L40.1638 86.8672C42.4261 87.2447 44.5975 87.4492 46.7949 87.5125C46.9291 87.5157 47.0774 87.5276 47.2116 87.5308C47.7339 87.535 48.2618 87.5623 48.8155 87.5465C49.0324 87.5413 49.2636 87.5448 49.4947 87.5482L49.8829 87.5492C50.2197 87.5386 50.5651 87.5136 50.9247 87.4972L50.9847 87.4945C51.1645 87.4863 51.3672 87.4724 51.547 87.4642C51.6298 87.4558 51.7268 87.4561 51.8324 87.4419L51.9523 87.4365C52.0123 87.4337 52.058 87.4223 52.1179 87.4196C52.4633 87.3946 52.8173 87.3551 53.1627 87.3301L53.2683 87.316C53.4253 87.3135 53.5766 87.288 53.728 87.2624C53.7651 87.2654 53.8107 87.254 53.8564 87.2426L54.022 87.2257C54.1647 87.2146 54.2932 87.1947 54.4446 87.1692C54.5502 87.155 54.6558 87.1409 54.7615 87.1268C55.0555 87.0901 55.3496 87.0534 55.6522 87.0023L56.1662 86.923C56.4003 86.889 56.6344 86.855 56.8771 86.8067C56.9599 86.7982 57.0655 86.7841 57.1883 86.7412L57.4996 86.6758C57.6966 86.6388 57.9165 86.5961 58.1221 86.5448C58.2363 86.5163 58.3648 86.4965 58.4933 86.4766L58.736 86.4283C58.8731 86.3941 59.0102 86.3598 59.1615 86.3343L59.5184 86.2574C59.6784 86.2175 59.8383 86.1776 60.0125 86.1463C60.1267 86.1178 60.2181 86.095 60.3323 86.0665L60.5008 86.0122L60.6608 85.9722C61.0806 85.8552 61.5233 85.7325 61.9517 85.601C61.9974 85.5896 62.0289 85.5695 62.066 85.5725C62.1345 85.5554 62.203 85.5383 62.2802 85.5068L62.3487 85.4897C62.4401 85.4669 62.5172 85.4354 62.6086 85.4126C62.8228 85.3469 63.0457 85.2668 63.2599 85.2011L63.4284 85.1467C63.5969 85.0924 63.7654 85.0381 63.934 84.9838L64.1796 84.898C64.3111 84.8407 64.4567 84.7921 64.5882 84.7348L65.2424 84.4859C65.3109 84.4688 65.388 84.4373 65.4423 84.4115L65.5595 84.3455C65.6367 84.314 65.7195 84.3056 65.7823 84.2654C65.8138 84.2453 65.8595 84.2339 65.9052 84.2225L66.2909 84.065C66.5994 83.9391 66.9166 83.7987 67.2251 83.6727L67.248 83.667C67.4565 83.5782 67.6737 83.4751 67.8909 83.3719L68.5566 83.0711C69.4653 82.624 70.3598 82.1682 71.1887 81.692C72.0804 81.1757 72.9437 80.642 73.7499 80.0736C74.5877 79.4851 75.4141 78.8505 76.1749 78.1956C76.3351 78.0577 76.4953 77.9198 76.6412 77.7732C76.6812 77.7388 76.7127 77.7187 76.7385 77.6755C76.9244 77.4945 77.1247 77.3221 77.3106 77.1411C77.4394 77.0233 77.5453 76.9112 77.6597 76.7847C77.7256 76.7071 77.7971 76.6526 77.8629 76.5749L77.8801 76.5462C77.9688 76.4628 78.0432 76.3708 78.1319 76.2875C78.1491 76.2587 78.1805 76.2386 78.212 76.2185C78.2692 76.1553 78.3493 76.0864 78.4152 76.0087C78.9962 75.362 79.7518 74.488 80.4306 73.5476C80.4965 73.47 80.5481 73.3837 80.6139 73.3061C80.7141 73.1709 80.8144 73.0357 80.9146 72.9006L81.3558 72.2275C81.5678 71.9054 81.7656 71.5745 81.9634 71.2437C82.0407 71.1143 82.1267 70.9704 82.2041 70.841C82.2987 70.6827 82.4019 70.5101 82.4822 70.3432C82.5252 70.2713 82.554 70.1907 82.5969 70.1188C82.6571 70.0181 82.6945 69.9231 82.7547 69.8224C83.0423 70.0566 83.33 70.2907 83.6263 70.5104C84.3527 71.0511 85.1648 71.5459 86.0057 71.9601ZM86.0057 71.9601C85.5809 71.7602 85.1677 71.5084 84.7688 71.2654C84.0564 70.8313 83.3784 70.3398 82.7348 69.7907C82.8065 69.6381 82.8839 69.5087 82.9556 69.3562L83.3057 68.608L83.5295 68.136L83.6416 67.8511L83.9202 67.1574C84.7087 67.9518 85.566 68.6311 86.4637 69.178C86.6774 69.3082 86.8911 69.4384 87.1134 69.5542L87.0589 69.678L87.0129 69.7873L86.8149 70.2161C86.7145 70.4492 86.614 70.6824 86.5078 70.8924L86.4275 71.0593L86.0315 71.9169C86.0229 71.9313 86.0057 71.9601 86.0057 71.9601ZM117.385 41.6096C117.414 41.6269 117.453 41.7884 117.447 42.0592C117.444 42.1946 117.443 42.3905 117.443 42.5865L117.431 42.6383C117.431 42.8342 117.413 43.0589 117.393 43.321C117.363 43.5976 117.34 43.8971 117.29 44.2399C117.276 44.4271 117.247 44.6057 117.226 44.7699L117.197 44.9484C117.18 45.0752 117.154 45.2163 117.136 45.343C117.116 45.4092 117.119 45.4697 117.113 45.5446C117.095 45.6714 117.069 45.8125 117.043 45.9536L116.893 46.6274C116.873 46.6936 116.867 46.7685 116.853 46.8578C116.827 46.9989 116.798 47.1775 116.763 47.333L116.685 47.6583C116.659 47.7995 116.619 47.9319 116.593 48.073C116.379 48.9829 116.08 50.0367 115.66 51.3898C115.591 51.6028 115.499 51.8215 115.43 52.0346L115.335 52.2908C115.286 52.4376 115.237 52.5844 115.174 52.7225L115.157 52.7513L114.97 53.2262C114.924 53.3356 114.878 53.445 114.832 53.5543C114.749 53.7587 114.671 53.9861 114.588 54.1905C114.45 54.5186 114.312 54.8467 114.166 55.1891C113.523 56.6223 112.809 58.0121 112.041 59.3298L111.396 60.4085C111.25 60.6531 111.089 60.8889 110.929 61.1248C110.86 61.2398 110.768 61.3606 110.699 61.4757C110.614 61.6195 110.513 61.7547 110.413 61.8898C110.387 61.933 110.361 61.9762 110.321 62.0106L110.278 62.0825C110.17 62.2321 110.052 62.396 109.958 62.5542C109.897 62.6549 109.832 62.7326 109.771 62.8332C109.714 62.8965 109.671 62.9684 109.614 63.0316L109.571 63.1035C109.545 63.1467 109.505 63.1812 109.479 63.2243C109.379 63.3595 109.27 63.509 109.147 63.6499C107.976 65.1537 106.671 66.5564 105.244 67.8061C104.466 68.4898 103.662 69.1187 102.856 69.6871C101.987 70.2957 101.069 70.8551 100.166 71.3253C99.1772 71.8414 98.143 72.2709 97.1547 72.5911C96.6034 72.7654 96.0608 72.9253 95.5296 73.0335C94.9528 73.153 94.3846 73.2581 93.8279 73.3114C91.3957 73.576 88.9592 73.2297 86.7982 72.3251C86.5302 72.2207 86.2565 72.0932 86.0057 71.9601C86.0143 71.9457 86.0229 71.9313 86.0315 71.9169L86.4474 71.0911L86.5277 70.9242C86.6282 70.691 86.7287 70.4579 86.8348 70.2479L87.0788 69.7097L87.1333 69.5859C87.3699 69.7105 87.5922 69.8263 87.8374 69.9364C88.0398 70.0205 88.2422 70.1046 88.4589 70.1973L88.5387 70.2263C88.6328 70.264 88.7355 70.2874 88.8296 70.3251C88.975 70.3744 89.1062 70.4151 89.2516 70.4644C89.3172 70.4848 89.3828 70.5051 89.457 70.5111L89.5911 70.5143C89.6054 70.523 89.614 70.5086 89.6425 70.5259C89.7452 70.5493 89.8535 70.5957 89.9648 70.6046C90.039 70.6105 90.1188 70.6395 90.193 70.6455C90.347 70.6805 90.5239 70.7098 90.7008 70.739C91.6593 70.8913 92.641 70.94 93.6401 70.8619C95.4499 70.7283 97.3292 70.1857 99.2294 69.283C100.067 68.8904 100.895 68.4143 101.722 67.8776C102.485 67.3812 103.246 66.8242 103.981 66.2124C105.353 65.0865 106.632 63.8249 107.777 62.4622C108.33 61.798 108.854 61.1165 109.338 60.4695C109.429 60.3487 109.515 60.2049 109.607 60.0841C109.75 59.877 109.894 59.67 110.051 59.4716L110.713 58.4619C111.504 57.2366 112.249 55.9247 112.946 54.5637C113.098 54.2442 113.264 53.9335 113.408 53.6284C113.505 53.4328 113.589 53.2284 113.678 53.0471C113.724 52.9378 113.778 52.814 113.838 52.7133L114.045 52.2701L114.071 52.227C114.134 52.0888 114.188 51.9651 114.237 51.8183C114.358 51.5189 114.484 51.2427 114.596 50.9577C115.11 49.6423 115.45 48.652 115.734 47.7855L115.962 47.0802C116.011 46.9334 116.051 46.801 116.077 46.6599C116.106 46.5793 116.12 46.49 116.149 46.4094C116.189 46.277 116.229 46.1445 116.27 46.0121L116.333 45.776C116.373 45.6436 116.405 45.5255 116.423 45.3988C116.443 45.3326 116.457 45.2433 116.477 45.1771C116.529 44.9928 116.567 44.7999 116.619 44.6156C116.67 44.4313 116.714 44.2614 116.748 44.1059C116.826 43.7806 116.887 43.4839 116.968 43.2191C117.011 43.0492 117.054 42.8793 117.08 42.7382C117.095 42.6489 117.115 42.5827 117.135 42.5165C117.181 42.3092 117.224 42.1393 117.265 42.0069C117.299 41.7534 117.334 41.5979 117.385 41.6096ZM82.2444 47.1026C82.2586 47.1112 82.2643 47.1343 82.2643 47.1343C82.3925 47.2124 82.532 47.3367 82.7 47.4783C82.8396 47.6025 82.9904 47.7729 83.1668 47.9981L83.4029 48.3185L83.5252 48.4716C83.5736 48.5207 83.5991 48.5755 83.6389 48.639C84.2076 49.476 84.6846 50.4338 85.0416 51.495C85.3815 52.487 85.6242 53.5768 85.7527 54.695C85.8784 55.7528 85.9155 56.8938 85.884 58.052C85.8692 58.2393 85.8631 58.4121 85.8484 58.5994C85.8481 58.6973 85.8336 58.7866 85.8333 58.8846C85.8041 59.1611 85.7663 59.452 85.7513 59.7372L85.7102 60.1635C85.6957 60.2528 85.6812 60.3421 85.6668 60.4314C85.6552 60.4832 85.6437 60.535 85.6407 60.5725L85.5073 61.4135C85.5129 61.4365 85.4957 61.4653 85.5014 61.4883C85.4984 61.5258 85.4869 61.5776 85.4839 61.6151L85.4434 61.8455L85.351 62.2601L85.2729 62.6835C85.27 62.7209 85.2528 62.7497 85.2498 62.7871C85.2267 62.8908 85.2036 62.9944 85.1805 63.0981C85.1343 63.3054 85.0739 63.5041 85.0363 63.697L84.9901 63.9044C84.9786 63.9562 84.967 64.008 84.9555 64.0599C84.941 64.1491 84.9122 64.2298 84.8977 64.319L84.7768 64.7163C84.7049 64.9668 84.6243 65.2317 84.5523 65.4822L84.5493 65.5196C84.4918 65.6808 84.4258 65.8564 84.3683 66.0176C84.3309 66.1126 84.2936 66.2076 84.2705 66.3112L84.0983 66.6969C84.0811 66.7256 84.0725 66.74 84.0639 66.7544C84.0523 66.8062 84.0494 66.8437 84.0378 66.8955L83.9258 67.1805C83.6013 66.8454 83.2711 66.4873 82.9638 66.1235C82.2895 65.3006 81.6953 64.4087 81.1954 63.4566C80.7154 62.5363 80.2956 61.5152 79.9701 60.4339C79.656 59.3987 79.4219 58.2946 79.2792 57.1677C79.1421 56.0638 79.0822 54.9285 79.1051 53.7847C79.1054 53.6867 79.1056 53.5888 79.1115 53.5139C79.112 53.3179 79.1268 53.1307 79.1273 52.9348L79.1246 52.8742C79.1452 52.6121 79.1516 52.3413 79.1722 52.0791L79.2133 51.6528L79.2951 50.8982L79.3096 50.8089C79.327 50.6821 79.3445 50.5554 79.3762 50.4374C79.4745 49.9478 79.6098 49.4612 79.8108 48.995C79.9975 48.5201 80.2326 48.0943 80.4903 47.7607C80.7252 47.4329 81.0227 47.1628 81.2627 47.0539C81.3713 47.0023 81.4627 46.9795 81.5683 46.9654C81.6825 46.9369 81.7938 46.9458 81.9107 46.9778C82.0277 47.0098 82.1304 47.0331 82.2444 47.1026Z" fill="white"/>
</svg>
